<?xml version="1.0" encoding="UTF-8" standalone="no"?>
<!-- Created with Inkscape (http://www.inkscape.org/) -->

<svg
   xmlns:dc="http://purl.org/dc/elements/1.1/"
   xmlns:cc="http://creativecommons.org/ns#"
   xmlns:rdf="http://www.w3.org/1999/02/22-rdf-syntax-ns#"
   xmlns:svg="http://www.w3.org/2000/svg"
   xmlns="http://www.w3.org/2000/svg"
   xmlns:sodipodi="http://sodipodi.sourceforge.net/DTD/sodipodi-0.dtd"
   xmlns:inkscape="http://www.inkscape.org/namespaces/inkscape"
   width="210mm"
   height="297mm"
   viewBox="0 0 210 297"
   version="1.1"
   id="svg8"
   inkscape:version="0.92.3 (2405546, 2018-03-11)"
   sodipodi:docname="cf.svg">
  <defs
     id="defs2" />
  <sodipodi:namedview
     id="base"
     pagecolor="#ffffff"
     bordercolor="#666666"
     borderopacity="1.0"
     inkscape:pageopacity="0.0"
     inkscape:pageshadow="2"
     inkscape:zoom="1.979899"
     inkscape:cx="403.54619"
     inkscape:cy="682.39477"
     inkscape:document-units="mm"
     inkscape:current-layer="g932"
     showgrid="false"
     inkscape:window-width="1874"
     inkscape:window-height="1136"
     inkscape:window-x="46"
     inkscape:window-y="27"
     inkscape:window-maximized="1" />
  <metadata
     id="metadata5">
    <rdf:RDF>
      <cc:Work
         rdf:about="">
        <dc:format>image/svg+xml</dc:format>
        <dc:type
           rdf:resource="http://purl.org/dc/dcmitype/StillImage" />
        <dc:title></dc:title>
      </cc:Work>
    </rdf:RDF>
  </metadata>
  <g
     inkscape:label="Layer 1"
     inkscape:groupmode="layer"
     id="layer1">
    <g
       id="g932"
       transform="translate(-3.4745039,5.2117558)">
      <g
         id="g944"
         inkscape:export-xdpi="501.54001"
         inkscape:export-ydpi="501.54001">
        <path
           inkscape:connector-curvature="0"
           id="path894"
           d="m 92.863281,116.66602 c -2.79503,0 -5.064453,2.26942 -5.064453,5.06445 0,2.79503 2.269423,5.06445 5.064453,5.06445 2.79503,0 5.064453,-2.26942 5.064453,-5.06445 0,-2.79503 -2.269423,-5.06445 -5.064453,-5.06445 z m 0,0.36914 c 2.595608,0 4.695313,2.0997 4.695313,4.69531 0,2.59561 -2.099705,4.69531 -4.695313,4.69531 -2.595607,0 -4.695312,-2.0997 -4.695312,-4.69531 0,-2.59561 2.099705,-4.69531 4.695312,-4.69531 z"
           style="color:#000000;font-style:normal;font-variant:normal;font-weight:normal;font-stretch:normal;font-size:medium;line-height:normal;font-family:sans-serif;font-variant-ligatures:normal;font-variant-position:normal;font-variant-caps:normal;font-variant-numeric:normal;font-variant-alternates:normal;font-feature-settings:normal;text-indent:0;text-align:start;text-decoration:none;text-decoration-line:none;text-decoration-style:solid;text-decoration-color:#000000;letter-spacing:normal;word-spacing:normal;text-transform:none;writing-mode:lr-tb;direction:ltr;text-orientation:mixed;dominant-baseline:auto;baseline-shift:baseline;text-anchor:start;white-space:normal;shape-padding:0;clip-rule:nonzero;display:inline;overflow:visible;visibility:visible;opacity:1;isolation:auto;mix-blend-mode:normal;color-interpolation:sRGB;color-interpolation-filters:linearRGB;solid-color:#000000;solid-opacity:1;vector-effect:none;fill:#000000;fill-opacity:1;fill-rule:nonzero;stroke:none;stroke-width:0.36899999;stroke-linecap:butt;stroke-linejoin:miter;stroke-miterlimit:4;stroke-dasharray:none;stroke-dashoffset:0;stroke-opacity:1;color-rendering:auto;image-rendering:auto;shape-rendering:auto;text-rendering:auto;enable-background:accumulate" />
        <g
           id="g924"
           transform="translate(-1.1525998,-3.5413212)">
          <g
             transform="matrix(1,0,0.15427285,0.86983228,-17.332109,14.883825)"
             id="text821"
             style="font-style:normal;font-variant:normal;font-weight:normal;font-stretch:normal;font-size:10.58333302px;line-height:1.25;font-family:'URW Chancery L';-inkscape-font-specification:'URW Chancery L';letter-spacing:0px;word-spacing:0px;fill:#000000;fill-opacity:1;stroke:none;stroke-width:0.26458332"
             aria-label="f">
            <path
               sodipodi:nodetypes="sccscsccscccccccccscccscccc"
               inkscape:connector-curvature="0"
               id="path823"
               transform="matrix(0.26458333,0,-0.04692632,0.30417741,19.971894,-17.111144)"
               d="m 364.00586,457.82031 c -2.4,0 -3.94377,0.76577 -6.22266,3.02735 -0.89886,0.8857 -1.55996,2.86525 -2.01562,4.71484 0.81856,-0.0534 1.66401,-0.0879 2.55273,-0.0879 0.13746,0 0.26955,0.0103 0.40625,0.0117 0.65329,-2.7425 1.67441,-5.85742 3,-5.85742 0.68,0 1.21149,0.0705 2.72852,0.27929 l 1.50781,-1.8789 c -0.83085,-0.17391 -1.15703,-0.20899 -1.95703,-0.20899 z m -6.02539,11.41407 c -1.15009,0.0317 -2.15102,0.18775 -2.99219,0.47656 l -0.10547,0.94726 c 0,0 -0.28428,2.65895 -0.5039,5.4375 0.73528,0.26478 1.63451,0.41246 2.68359,0.45508 0.38404,-3.05703 0.74023,-5.89258 0.74023,-5.89258 l 0.12305,-1.11328 c 0,0 0.0488,-0.27317 0.0547,-0.31054 z m -3.96289,11.08007 c -0.63718,6.3758 -1.5214,7.56641 -4.43946,7.56641 -0.55997,0 -1.04767,-0.0348 -2.15234,-0.17383 -0.30744,0.5219 -0.39663,0.69663 -0.62109,1.00977 -0.25214,0.3827 -0.5431,0.76607 -0.78907,1.18359 0.89849,0.10422 1.34438,0.13867 1.98438,0.13867 1.32,0 2.32961,-0.17511 2.91406,-0.48828 1.06127,-0.55671 2.7981,-2.26074 3.66211,-3.47851 0.77472,-1.15426 1.49996,-3.26826 1.94922,-5.66407 -0.87917,0 -1.70854,-0.037 -2.50781,-0.0937 z"
               style="font-style:normal;font-variant:normal;font-weight:normal;font-stretch:normal;font-family:'URW Chancery L';-inkscape-font-specification:'URW Chancery L';stroke-width:0.93264794" />
          </g>
          <g
             id="text835"
             style="font-style:normal;font-weight:normal;font-size:9.72692585px;line-height:1.25;font-family:sans-serif;letter-spacing:0px;word-spacing:0px;fill:#ffffff;fill-opacity:1;stroke:none;stroke-width:0.06889352"
             transform="matrix(1.4136516,0,-0.07057227,0.70738787,0,0)"
             aria-label="c" />
          <path
             id="path877"
             transform="scale(0.26458333)"
             d="m 356.89453,466.45703 c -3.41145,0 -6.15777,0.57246 -8.23828,1.71875 -2.06748,1.14629 -3.20079,2.72012 -3.40039,4.7207 -0.19667,1.97137 0.61712,3.53834 2.44141,4.69922 1.82428,1.16092 4.38346,1.74024 7.67773,1.74024 1.21092,0 0.35667,-0.0657 1.4375,-0.19727 l 0.16602,-1.24023 c -1.91173,-0.0204 -3.52018,-0.27324 -4.80469,-0.77149 -0.58858,-0.19104 -1.10348,-0.43585 -1.54297,-0.73633 -0.71999,-0.49689 -1.19275,-1.11591 -1.42969,-1.8496 -0.0117,-0.0312 -0.0244,-0.0621 -0.0351,-0.0937 -0.002,-0.007 -0.004,-0.0144 -0.006,-0.0215 -0.1558,-0.46978 -0.20929,-0.9781 -0.1543,-1.5293 0.0636,-0.63732 0.2608,-1.21627 0.57812,-1.74218 0.38465,-0.68832 0.96069,-1.27007 1.74219,-1.74024 0.49312,-0.29913 1.05104,-0.54275 1.66797,-0.73437 1.48414,-0.52809 3.28445,-0.79492 5.4082,-0.79492 0.89548,0 1.76624,0.052 2.60938,0.15429 0.68967,0.079 1.35234,0.20037 2,0.34766 l 0.11523,-1.16406 c -0.9641,-0.25546 -1.96749,-0.44402 -3.00976,-0.56836 -1.04161,-0.13115 -2.11588,-0.19727 -3.22266,-0.19727 z"
             style="font-style:normal;font-weight:normal;font-size:medium;line-height:1.25;font-family:sans-serif;letter-spacing:0px;word-spacing:0px;fill:#000000;fill-opacity:1;stroke:none;stroke-width:0.21214995"
             inkscape:connector-curvature="0" />
        </g>
      </g>
    </g>
    <g
       aria-label="c"
       transform="matrix(1.361708,0,-0.07326432,0.73437183,0,0)"
       style="font-style:normal;font-weight:normal;font-size:6.28836012px;line-height:1.25;font-family:sans-serif;letter-spacing:0px;word-spacing:0px;fill:#ffffff;fill-opacity:1;stroke:none;stroke-width:0.04453897"
       id="text865" />
  </g>
</svg>
