<?xml version="1.0" encoding="UTF-8" standalone="no"?>
<!-- Created with Inkscape (http://www.inkscape.org/) -->

<svg
   xmlns:dc="http://purl.org/dc/elements/1.1/"
   xmlns:cc="http://creativecommons.org/ns#"
   xmlns:rdf="http://www.w3.org/1999/02/22-rdf-syntax-ns#"
   xmlns:svg="http://www.w3.org/2000/svg"
   xmlns="http://www.w3.org/2000/svg"
   xmlns:sodipodi="http://sodipodi.sourceforge.net/DTD/sodipodi-0.dtd"
   xmlns:inkscape="http://www.inkscape.org/namespaces/inkscape"
   width="500"
   height="350"
   viewBox="0 0 132.29167 92.604166"
   version="1.1"
   id="svg5239"
   sodipodi:docname="drawing.svg"
   inkscape:version="0.92.3 (2405546, 2018-03-11)">
  <defs
     id="defs5233">
    <clipPath
       clipPathUnits="userSpaceOnUse"
       id="clipPath2546">
      <path
         d="m 431.715,435.478 h 361.49 v 361.49 h -361.49 z"
         id="path2544"
         inkscape:connector-curvature="0" />
    </clipPath>
    <clipPath
       clipPathUnits="userSpaceOnUse"
       id="clipPath2522">
      <path
         d="m 638.207,487.81 c 0,-20.147 7.652,-38.507 20.208,-52.332 v 0 h 115.307 c 10.3,11.341 17.301,25.738 19.483,41.666 v 0 21.332 c -5.201,37.953 -37.754,67.193 -77.137,67.193 v 0 c -43.001,0 -77.861,-34.857 -77.861,-77.859"
         id="path2520"
         inkscape:connector-curvature="0" />
    </clipPath>
    <linearGradient
       x1="0"
       y1="0"
       x2="1"
       y2="0"
       gradientUnits="userSpaceOnUse"
       gradientTransform="matrix(56.655556,-221.22614,-221.22614,-56.655556,685.45898,607.33496)"
       spreadMethod="pad"
       id="linearGradient2536">
      <stop
         style="stop-opacity:1;stop-color:#5a0660"
         offset="0"
         id="stop2528" />
      <stop
         style="stop-opacity:1;stop-color:#350039"
         offset="0.76650144"
         id="stop2530" />
      <stop
         style="stop-opacity:1;stop-color:#350039"
         offset="0.882979"
         id="stop2532" />
      <stop
         style="stop-opacity:1;stop-color:#350039"
         offset="1"
         id="stop2534" />
    </linearGradient>
    <clipPath
       clipPathUnits="userSpaceOnUse"
       id="clipPath2506">
      <path
         d="m 431.715,435.478 h 361.49 v 361.49 h -361.49 z"
         id="path2504"
         inkscape:connector-curvature="0" />
    </clipPath>
    <clipPath
       clipPathUnits="userSpaceOnUse"
       id="clipPath2482">
      <path
         d="m 605.976,487.81 c 0,-18.942 4.784,-36.767 13.209,-52.332 v 0 h 174.02 V 566.357 C 773.341,585.866 746.109,597.9 716.068,597.9 v 0 c -60.801,0 -110.092,-49.292 -110.092,-110.09"
         id="path2480"
         inkscape:connector-curvature="0" />
    </clipPath>
    <linearGradient
       x1="0"
       y1="0"
       x2="1"
       y2="0"
       gradientUnits="userSpaceOnUse"
       gradientTransform="matrix(220.18359,0,0,-220.18359,605.97656,487.80762)"
       spreadMethod="pad"
       id="linearGradient2496">
      <stop
         style="stop-opacity:1;stop-color:#5a0660"
         offset="0"
         id="stop2488" />
      <stop
         style="stop-opacity:1;stop-color:#350039"
         offset="0.76650144"
         id="stop2490" />
      <stop
         style="stop-opacity:1;stop-color:#350039"
         offset="0.882979"
         id="stop2492" />
      <stop
         style="stop-opacity:1;stop-color:#350039"
         offset="1"
         id="stop2494" />
    </linearGradient>
    <filter
       style="color-interpolation-filters:sRGB;"
       inkscape:label="Blur"
       id="filter6780">
      <feGaussianBlur
         stdDeviation="2 2"
         result="blur"
         id="feGaussianBlur6778" />
    </filter>
    <filter
       style="color-interpolation-filters:sRGB;"
       inkscape:label="Blur"
       id="filter6784">
      <feGaussianBlur
         stdDeviation="2 2"
         result="blur"
         id="feGaussianBlur6782" />
    </filter>
    <filter
       style="color-interpolation-filters:sRGB;"
       inkscape:label="Blur"
       id="filter6788">
      <feGaussianBlur
         stdDeviation="2 2"
         result="blur"
         id="feGaussianBlur6786" />
    </filter>
    <filter
       style="color-interpolation-filters:sRGB;"
       inkscape:label="Blur"
       id="filter6792">
      <feGaussianBlur
         stdDeviation="2 2"
         result="blur"
         id="feGaussianBlur6790" />
    </filter>
    <filter
       style="color-interpolation-filters:sRGB;"
       inkscape:label="Blur"
       id="filter6796">
      <feGaussianBlur
         stdDeviation="2 2"
         result="blur"
         id="feGaussianBlur6794" />
    </filter>
    <filter
       style="color-interpolation-filters:sRGB;"
       inkscape:label="Blur"
       id="filter6800">
      <feGaussianBlur
         stdDeviation="2 2"
         result="blur"
         id="feGaussianBlur6798" />
    </filter>
    <filter
       style="color-interpolation-filters:sRGB;"
       inkscape:label="Blur"
       id="filter6804">
      <feGaussianBlur
         stdDeviation="2 2"
         result="blur"
         id="feGaussianBlur6802" />
    </filter>
    <filter
       style="color-interpolation-filters:sRGB;"
       inkscape:label="Blur"
       id="filter6808">
      <feGaussianBlur
         stdDeviation="2 2"
         result="blur"
         id="feGaussianBlur6806" />
    </filter>
    <filter
       style="color-interpolation-filters:sRGB;"
       inkscape:label="Blur"
       id="filter6812">
      <feGaussianBlur
         stdDeviation="2 2"
         result="blur"
         id="feGaussianBlur6810" />
    </filter>
    <filter
       style="color-interpolation-filters:sRGB;"
       inkscape:label="Blur"
       id="filter6816">
      <feGaussianBlur
         stdDeviation="2 2"
         result="blur"
         id="feGaussianBlur6814" />
    </filter>
    <filter
       style="color-interpolation-filters:sRGB;"
       inkscape:label="Blur"
       id="filter6820">
      <feGaussianBlur
         stdDeviation="2 2"
         result="blur"
         id="feGaussianBlur6818" />
    </filter>
    <filter
       style="color-interpolation-filters:sRGB;"
       inkscape:label="Blur"
       id="filter6824">
      <feGaussianBlur
         stdDeviation="2 2"
         result="blur"
         id="feGaussianBlur6822" />
    </filter>
    <filter
       style="color-interpolation-filters:sRGB;"
       inkscape:label="Blur"
       id="filter6828">
      <feGaussianBlur
         stdDeviation="2 2"
         result="blur"
         id="feGaussianBlur6826" />
    </filter>
  </defs>
  <sodipodi:namedview
     id="base"
     pagecolor="#ffffff"
     bordercolor="#666666"
     borderopacity="1.0"
     inkscape:pageopacity="0.0"
     inkscape:pageshadow="2"
     inkscape:zoom="0.98994949"
     inkscape:cx="298.41914"
     inkscape:cy="250.37047"
     inkscape:document-units="mm"
     inkscape:current-layer="layer1"
     showgrid="false"
     showborder="true"
     fit-margin-top="0"
     fit-margin-left="0"
     fit-margin-right="0"
     fit-margin-bottom="0"
     inkscape:window-width="1874"
     inkscape:window-height="1136"
     inkscape:window-x="46"
     inkscape:window-y="27"
     inkscape:window-maximized="1"
     units="px" />
  <metadata
     id="metadata5236">
    <rdf:RDF>
      <cc:Work
         rdf:about="">
        <dc:format>image/svg+xml</dc:format>
        <dc:type
           rdf:resource="http://purl.org/dc/dcmitype/StillImage" />
        <dc:title></dc:title>
      </cc:Work>
    </rdf:RDF>
  </metadata>
  <g
     inkscape:label="Layer 1"
     inkscape:groupmode="layer"
     id="layer1"
     transform="translate(47.887815,-263.62293)">
    <path
       inkscape:connector-curvature="0"
       id="path2646"
       style="fill:#410045;fill-opacity:1;fill-rule:nonzero;stroke:none;stroke-width:0.35277778"
       d="m 80.922449,389.76841 c -0.279753,0 -0.536222,-0.18662 -0.612422,-0.47025 -0.09031,-0.33867 0.110066,-0.68651 0.44838,-0.77682 l 103.775933,-27.807 c 0.33972,-0.0907 0.68685,0.10971 0.77787,0.44838 0.0903,0.33867 -0.11077,0.68721 -0.44908,0.77682 l -103.775934,27.8077 c -0.05503,0.0138 -0.111125,0.0212 -0.164747,0.0212" />
    <path
       inkscape:connector-curvature="0"
       id="path2634"
       style="fill:#5a0660;fill-opacity:1;fill-rule:nonzero;stroke:none;stroke-width:0.35277778"
       d="m 64.643133,408.39149 c -0.279753,0 -0.536222,-0.18662 -0.611717,-0.47061 -0.09102,-0.33866 0.109361,-0.68615 0.448381,-0.77681 l 103.775933,-27.807 c 0.33902,-0.0896 0.68686,0.11077 0.77717,0.44838 0.0903,0.33866 -0.11007,0.68721 -0.44838,0.77717 l -103.775934,27.807 c -0.05539,0.0152 -0.111125,0.0219 -0.165453,0.0219" />
    <g
       id="g2476"
       transform="matrix(0.35277777,0,0,-0.35277777,-91.456894,407.48983)">
      <g
         id="g2478"
         clip-path="url(#clipPath2482)">
        <g
           id="g2484">
          <g
             id="g2486">
            <path
               d="m 605.976,487.81 c 0,-18.942 4.784,-36.767 13.209,-52.332 v 0 h 174.02 V 566.357 C 773.341,585.866 746.109,597.9 716.068,597.9 v 0 c -60.801,0 -110.092,-49.292 -110.092,-110.09"
               style="fill:url(#linearGradient2496);stroke:none"
               id="path2498"
               inkscape:connector-curvature="0" />
          </g>
        </g>
      </g>
    </g>
    <g
       id="g2500"
       transform="matrix(0.35277777,0,0,-0.35277777,-195.11948,509.76636)"
       style="filter:url(#filter6828)">
      <g
         id="g2502"
         clip-path="url(#clipPath2506)">
        <g
           id="g2508"
           transform="translate(766.834,583.6455)">
          <path
             d="m 0,0 c -0.256,0 -0.516,0.052 -0.764,0.169 -0.898,0.423 -1.285,1.497 -0.861,2.394 l 8.223,17.474 c 0.224,0.48 0.648,0.835 1.162,0.973 0.51,0.135 1.054,0.041 1.492,-0.26 l 14.109,-9.81 7.317,15.551 c 0.226,0.478 0.652,0.833 1.162,0.971 0.512,0.138 1.058,0.041 1.494,-0.26 l 14.109,-9.809 7.317,15.55 c 0.226,0.478 0.654,0.833 1.164,0.971 0.512,0.138 1.056,0.041 1.49,-0.26 l 14.109,-9.806 7.321,15.548 c 0.224,0.477 0.648,0.835 1.16,0.973 0.512,0.135 1.059,0.039 1.492,-0.263 l 14.111,-9.806 7.319,15.551 c 0.226,0.477 0.65,0.833 1.162,0.97 0.512,0.135 1.057,0.041 1.492,-0.262 l 14.113,-9.807 7.317,15.549 c 0.224,0.479 0.65,0.835 1.162,0.972 0.51,0.135 1.057,0.041 1.492,-0.259 l 14.111,-9.81 7.317,15.551 c 0.226,0.477 0.652,0.833 1.164,0.971 0.51,0.137 1.056,0.042 1.49,-0.26 l 14.113,-9.807 7.317,15.551 c 0.226,0.478 0.652,0.833 1.164,0.971 0.51,0.137 1.056,0.041 1.492,-0.26 l 14.111,-9.81 7.321,15.551 c 0.423,0.901 1.494,1.282 2.392,0.861 0.899,-0.422 1.285,-1.494 0.862,-2.394 l -8.227,-17.476 c -0.225,-0.477 -0.648,-0.833 -1.162,-0.967 -0.51,-0.138 -1.057,-0.044 -1.492,0.259 l -14.112,9.807 -7.318,-15.551 c -0.225,-0.477 -0.648,-0.833 -1.16,-0.971 -0.512,-0.136 -1.059,-0.041 -1.494,0.26 l -14.112,9.807 -7.318,-15.548 c -0.225,-0.48 -0.648,-0.836 -1.16,-0.971 -0.51,-0.137 -1.057,-0.044 -1.492,0.26 l -14.114,9.807 -7.316,-15.548 c -0.227,-0.481 -0.65,-0.836 -1.162,-0.974 -0.51,-0.136 -1.057,-0.041 -1.492,0.263 l -14.112,9.807 -7.32,-15.551 c -0.225,-0.481 -0.65,-0.833 -1.162,-0.971 -0.508,-0.137 -1.055,-0.044 -1.49,0.26 L 81.191,35.938 73.873,20.39 c -0.225,-0.481 -0.648,-0.836 -1.164,-0.971 -0.506,-0.138 -1.055,-0.044 -1.49,0.26 l -14.11,9.806 -7.316,-15.547 c -0.227,-0.481 -0.652,-0.836 -1.162,-0.971 -0.512,-0.14 -1.057,-0.044 -1.492,0.26 L 33.027,23.033 25.711,7.485 C 25.484,7.005 25.059,6.649 24.547,6.512 24.037,6.375 23.492,6.471 23.057,6.771 L 8.945,16.578 1.631,1.03 C 1.322,0.382 0.676,0 0,0"
             style="fill:#410045;fill-opacity:1;fill-rule:nonzero;stroke:none"
             id="path2510"
             inkscape:connector-curvature="0" />
        </g>
        <g
           id="g2512"
           transform="translate(711.7773,411.7051)">
          <path
             d="m 0,0 c -0.898,0.423 -1.969,0.039 -2.393,-0.861 l -9.209,-19.562 -17.755,12.336 c -0.434,0.304 -0.981,0.398 -1.493,0.26 -0.509,-0.135 -0.935,-0.49 -1.162,-0.97 l -9.207,-19.562 -17.756,12.337 c -0.435,0.303 -0.98,0.399 -1.492,0.261 -0.512,-0.137 -0.935,-0.493 -1.162,-0.972 l -9.207,-19.562 -17.756,12.339 c -0.433,0.301 -0.98,0.396 -1.492,0.259 -0.512,-0.137 -0.937,-0.492 -1.162,-0.973 l -9.207,-19.561 -17.756,12.338 c -0.434,0.304 -0.98,0.398 -1.492,0.26 -0.51,-0.138 -0.934,-0.49 -1.162,-0.971 l -9.205,-19.564 -17.756,12.339 c -0.434,0.304 -0.981,0.397 -1.492,0.263 -0.512,-0.141 -0.938,-0.494 -1.163,-0.974 l -9.207,-19.564 -17.751,12.339 c -0.436,0.303 -0.983,0.4 -1.493,0.259 -0.513,-0.135 -0.937,-0.49 -1.162,-0.97 l -9.207,-19.561 -17.754,12.339 c -0.435,0.301 -0.98,0.396 -1.492,0.259 -0.512,-0.138 -0.937,-0.494 -1.162,-0.973 l -9.209,-19.562 -17.752,12.339 c -0.436,0.301 -0.98,0.397 -1.494,0.262 -0.51,-0.14 -0.936,-0.495 -1.16,-0.973 l -9.203,-19.561 -17.756,12.339 c -0.434,0.3 -0.979,0.396 -1.49,0.258 -0.514,-0.134 -0.938,-0.49 -1.163,-0.969 l -9.205,-19.562 -17.754,12.336 c -0.435,0.304 -0.982,0.398 -1.492,0.262 -0.511,-0.137 -0.935,-0.492 -1.162,-0.973 l -9.207,-19.561 -17.754,12.339 c -0.433,0.3 -0.978,0.397 -1.49,0.259 -0.512,-0.137 -0.938,-0.493 -1.164,-0.972 l -9.205,-19.563 -14.485,10.067 v -4.382 l 14.178,-9.854 c 0.305,-0.21 0.664,-0.321 1.028,-0.321 0.156,0 0.31,0.02 0.464,0.062 0.512,0.137 0.936,0.493 1.162,0.97 l 9.208,19.565 17.753,-12.339 c 0.436,-0.304 0.981,-0.398 1.491,-0.26 0.513,0.135 0.937,0.49 1.164,0.971 l 9.207,19.561 17.752,-12.336 c 0.435,-0.303 0.982,-0.397 1.492,-0.262 0.512,0.137 0.937,0.493 1.162,0.97 l 9.205,19.565 17.754,-12.339 c 0.434,-0.302 0.98,-0.398 1.492,-0.26 0.51,0.138 0.936,0.493 1.162,0.973 l 9.205,19.559 17.754,-12.339 c 0.434,-0.301 0.981,-0.397 1.49,-0.259 0.512,0.137 0.938,0.493 1.163,0.972 l 9.209,19.562 17.752,-12.339 c 0.437,-0.304 0.98,-0.397 1.492,-0.262 0.511,0.138 0.937,0.493 1.162,0.973 l 9.207,19.561 17.754,-12.336 c 0.435,-0.303 0.98,-0.399 1.492,-0.261 0.512,0.136 0.937,0.492 1.162,0.972 l 9.207,19.562 17.754,-12.339 c 0.436,-0.301 0.98,-0.396 1.492,-0.26 0.51,0.138 0.936,0.493 1.162,0.974 l 9.207,19.561 17.756,-12.338 c 0.436,-0.301 0.981,-0.398 1.492,-0.26 0.512,0.138 0.938,0.493 1.162,0.971 l 9.208,19.563 17.755,-12.338 c 0.434,-0.304 0.981,-0.397 1.493,-0.263 0.511,0.138 0.937,0.494 1.162,0.973 l 9.207,19.565 17.754,-12.339 c 0.435,-0.304 0.98,-0.397 1.492,-0.262 0.512,0.138 0.937,0.493 1.162,0.973 l 9.207,19.561 17.756,-12.336 c 0.437,-0.304 0.98,-0.397 1.492,-0.26 0.512,0.135 0.937,0.491 1.162,0.968 L 0.861,-2.392 C 1.287,-1.494 0.9,-0.423 0,0"
             style="fill:#5a0660;fill-opacity:1;fill-rule:nonzero;stroke:none"
             id="path2514"
             inkscape:connector-curvature="0" />
        </g>
      </g>
    </g>
    <g
       id="g2516"
       transform="matrix(0.35277777,0,0,-0.35277777,-91.456894,422.18867)">
      <g
         id="g2518"
         clip-path="url(#clipPath2522)">
        <g
           id="g2524">
          <g
             id="g2526">
            <path
               d="m 638.207,487.81 c 0,-20.147 7.652,-38.507 20.208,-52.332 v 0 h 115.307 c 10.3,11.341 17.301,25.738 19.483,41.666 v 0 21.332 c -5.201,37.953 -37.754,67.193 -77.137,67.193 v 0 c -43.001,0 -77.861,-34.857 -77.861,-77.859"
               style="fill:url(#linearGradient2536);stroke:none"
               id="path2538"
               inkscape:connector-curvature="0" />
          </g>
        </g>
      </g>
    </g>
    <path
       inkscape:connector-curvature="0"
       id="path2550"
       style="fill:#f9a719;fill-opacity:1;fill-rule:nonzero;stroke:none;stroke-width:0.35277778;filter:url(#filter6824)"
       d="m 88.069918,371.15047 c -4.562759,4.05799 -9.783793,7.10191 -15.518842,9.045 -5.539305,1.87759 -11.321803,2.65522 -17.186111,2.31209 -5.864534,-0.34338 -11.516741,-1.79104 -16.798567,-4.30224 -5.469118,-2.59862 -10.299497,-6.23083 -14.357952,-10.79412 -4.057292,-4.56197 -7.100942,-9.78323 -9.044009,-15.51878 -1.877618,-5.53881 -2.655979,-11.3216 -2.312356,-17.18587 0.343385,-5.86454 1.791016,-11.51625 4.301778,-16.7991 2.599589,-5.46857 6.231567,-10.2992 10.794326,-14.35719 0.262024,-0.23304 0.66319,-0.2093 0.895754,0.0522 0.232804,0.26176 0.209797,0.66322 -0.05223,0.89626 -18.114755,16.11075 -19.7448628,43.955 -3.63481,62.06896 16.111219,18.11528 43.955204,19.74562 62.069956,3.63487 0.262024,-0.23303 0.662957,-0.20956 0.895761,0.0522 0.233036,0.26202 0.209324,0.66269 -0.0527,0.89572"
       inkscape:transform-center-x="8.4146702"
       inkscape:transform-center-y="6.8258064" />
    <path
       inkscape:connector-curvature="0"
       id="path2558"
       style="fill:#e7096e;fill-opacity:1;fill-rule:nonzero;stroke:none;stroke-width:0.35277778;filter:url(#filter6820)"
       d="m 24.445354,293.80145 c -0.280458,0 -0.536575,-0.18768 -0.612422,-0.47061 -0.09102,-0.33866 0.110066,-0.68615 0.44838,-0.77787 l 71.580021,-19.17982 c 0.339019,-0.0907 0.686506,0.11077 0.777522,0.44944 0.08996,0.33831 -0.110419,0.68615 -0.449439,0.77681 l -71.58002,19.18018 c -0.05433,0.0145 -0.109714,0.0219 -0.164042,0.0219" />
    <path
       inkscape:connector-curvature="0"
       id="path2562"
       style="fill:#e7096e;fill-opacity:1;fill-rule:nonzero;stroke:none;stroke-width:0.35277778;filter:url(#filter6816)"
       d="m -38.794009,342.61593 c -0.279753,0 -0.536575,-0.18662 -0.612422,-0.46955 -0.09102,-0.33866 0.110067,-0.68615 0.44838,-0.77787 L 8.9459932,328.53304 c 0.339019,-0.0907 0.686858,0.11007 0.777169,0.44873 0.09102,0.33867 -0.109361,0.68616 -0.44838,0.77682 l -47.9040442,12.83617 c -0.05503,0.0145 -0.110419,0.0212 -0.164747,0.0212" />
    <path
       inkscape:connector-curvature="0"
       id="path2566"
       style="fill:#f9a719;fill-opacity:1;fill-rule:nonzero;stroke:none;stroke-width:0.35277778;filter:url(#filter6812)"
       d="m 43.710596,318.28794 c -0.280458,0 -0.536575,-0.18662 -0.612422,-0.47025 -0.09102,-0.33867 0.110066,-0.68651 0.44838,-0.77717 l 22.332597,-5.98382 c 0.338314,-0.0907 0.686153,0.10972 0.777169,0.44838 0.09031,0.33867 -0.110419,0.68651 -0.449086,0.77717 l -22.332596,5.98382 c -0.05433,0.0145 -0.109714,0.0219 -0.164042,0.0219" />
    <path
       inkscape:connector-curvature="0"
       id="path2570"
       style="fill:#f9a719;fill-opacity:1;fill-rule:nonzero;stroke:none;stroke-width:0.35277778"
       d="m 165.34961,348.15084 c -0.27975,0 -0.53657,-0.18662 -0.61313,-0.47061 -0.0896,-0.33866 0.11078,-0.68615 0.44909,-0.77681 l 23.80898,-6.37928 c 0.33901,-0.0907 0.6865,0.10971 0.77752,0.44838 0.09,0.33866 -0.11042,0.6865 -0.44874,0.77646 l -23.80968,6.37999 c -0.0543,0.0145 -0.10971,0.0219 -0.16404,0.0219" />
    <path
       inkscape:connector-curvature="0"
       id="path2574"
       style="fill:#52bfa9;fill-opacity:1;fill-rule:nonzero;stroke:none;stroke-width:0.35277778"
       d="m 148.47338,394.76335 c -0.27976,0 -0.53658,-0.18768 -0.61243,-0.47061 -0.091,-0.33866 0.11007,-0.68721 0.44838,-0.77787 l 29.77551,-7.97807 c 0.33866,-0.0907 0.68615,0.11077 0.77717,0.44909 0.09,0.33796 -0.11042,0.6858 -0.44944,0.77717 l -29.77445,7.97842 c -0.055,0.0145 -0.11112,0.0219 -0.16474,0.0219" />
    <g
       id="g6201"
       transform="translate(16.522361,-65.481034)"
       style="filter:url(#filter6808)">
      <path
         d="m 31.139873,355.23783 -1.012119,0.27093 3.164769,-11.34286 1.011414,-0.27058 z"
         style="fill:#f9a719;fill-opacity:1;fill-rule:nonzero;stroke:none;stroke-width:0.35277778"
         id="path2578"
         inkscape:connector-curvature="0" />
      <path
         d="m 35.417304,354.09095 -1.011414,0.27199 3.164064,-11.34286 1.011414,-0.27058 z"
         style="fill:#f9a719;fill-opacity:1;fill-rule:nonzero;stroke:none;stroke-width:0.35277778"
         id="path2582"
         inkscape:connector-curvature="0" />
      <path
         d="m 39.695404,352.94411 -1.012119,0.27199 3.164063,-11.34251 1.01212,-0.27093 z"
         style="fill:#f9a719;fill-opacity:1;fill-rule:nonzero;stroke:none;stroke-width:0.35277778"
         id="path2586"
         inkscape:connector-curvature="0" />
      <path
         d="m 43.972835,351.79758 -1.011414,0.27199 3.164064,-11.34286 1.012119,-0.27094 z"
         style="fill:#f9a719;fill-opacity:1;fill-rule:nonzero;stroke:none;stroke-width:0.35277778"
         id="path2590"
         inkscape:connector-curvature="0" />
      <path
         d="m 48.250265,350.65172 -1.011414,0.27093 3.16477,-11.34286 1.010708,-0.27058 z"
         style="fill:#f9a719;fill-opacity:1;fill-rule:nonzero;stroke:none;stroke-width:0.35277778"
         id="path2594"
         inkscape:connector-curvature="0" />
      <path
         d="m 52.527696,349.50484 -1.011414,0.27199 3.16477,-11.34286 1.011413,-0.27058 z"
         style="fill:#f9a719;fill-opacity:1;fill-rule:nonzero;stroke:none;stroke-width:0.35277778"
         id="path2598"
         inkscape:connector-curvature="0" />
      <path
         d="m 56.805832,348.358 -1.010708,0.27093 3.164064,-11.3418 1.011413,-0.27058 z"
         style="fill:#f9a719;fill-opacity:1;fill-rule:nonzero;stroke:none;stroke-width:0.35277778"
         id="path2602"
         inkscape:connector-curvature="0" />
      <path
         d="m 60.992953,347.02837 -1.012119,0.27129 3.164769,-11.34287 1.011414,-0.27093 z"
         style="fill:#f9a719;fill-opacity:1;fill-rule:nonzero;stroke:none;stroke-width:0.35277778"
         id="path2606"
         inkscape:connector-curvature="0" />
    </g>
    <path
       inkscape:connector-curvature="0"
       id="path2614"
       style="fill:#52bfa9;fill-opacity:1;fill-rule:nonzero;stroke:none;stroke-width:0.35277778;filter:url(#filter6804)"
       d="m -2.8464591,304.09815 c -0.279753,0 -0.536222,-0.18662 -0.611717,-0.47061 -0.09102,-0.33866 0.109361,-0.68615 0.448381,-0.77681 L 113.68946,271.58015 c 0.33973,-0.0907 0.68616,0.11113 0.77717,0.4498 0.091,0.3376 -0.11006,0.68544 -0.44838,0.77611 L -2.6810061,304.07628 c -0.05539,0.0145 -0.11042,0.0219 -0.165453,0.0219" />
    <path
       inkscape:connector-curvature="0"
       id="path2618"
       style="fill:#52bfa9;fill-opacity:1;fill-rule:nonzero;stroke:none;stroke-width:0.35277778"
       d="m 144.21141,337.38453 c -0.27975,0 -0.53622,-0.18662 -0.61242,-0.47061 -0.0903,-0.33866 0.11006,-0.68615 0.44908,-0.77681 l 29.16061,-7.81368 c 0.33902,-0.0903 0.68721,0.11007 0.77717,0.44874 0.091,0.33866 -0.10936,0.68615 -0.44838,0.77681 l -29.16131,7.81438 c -0.055,0.0138 -0.11042,0.0212 -0.16475,0.0212" />
    <path
       inkscape:connector-curvature="0"
       id="path2622"
       style="fill:#5a0660;fill-opacity:1;fill-rule:nonzero;stroke:none;stroke-width:0.35277778;filter:url(#filter6800)"
       d="m 40.449983,326.13968 c -0.280458,0 -0.537281,-0.18768 -0.612422,-0.47061 -0.09102,-0.33866 0.110066,-0.68615 0.44838,-0.77787 l 41.452094,-11.10615 c 0.339019,-0.091 0.686858,0.10936 0.777169,0.44803 0.08961,0.33866 -0.110772,0.6865 -0.449086,0.77717 l -41.452093,11.10756 c -0.05503,0.0145 -0.11042,0.0219 -0.164042,0.0219" />
    <path
       inkscape:connector-curvature="0"
       id="path2626"
       style="fill:#410045;fill-opacity:1;fill-rule:nonzero;stroke:none;stroke-width:0.35277778;filter:url(#filter6796)"
       d="m -24.566626,333.78627 c -0.280458,0 -0.536575,-0.18627 -0.612422,-0.47025 -0.09102,-0.33867 0.110066,-0.68651 0.449086,-0.77717 l 33.7075603,-9.03252 c 0.3376084,-0.0903 0.6847417,0.11077 0.7764639,0.44943 0.091017,0.33867 -0.1100667,0.68651 -0.4490861,0.77717 l -33.7068551,9.03147 c -0.05503,0.0155 -0.110419,0.0219 -0.164747,0.0219" />
    <path
       inkscape:connector-curvature="0"
       id="path2638"
       style="fill:#52bfa9;fill-opacity:1;fill-rule:nonzero;stroke:none;stroke-width:0.35277778;filter:url(#filter6792)"
       d="m 57.188246,299.56267 c -21.065419,0 -38.203363,17.13794 -38.203363,38.20301 0,21.06542 17.137944,38.20407 38.203363,38.20407 21.065419,0 38.203363,-17.13865 38.203363,-38.20407 0,-21.06507 -17.137944,-38.20301 -38.203363,-38.20301 m 0,77.67602 c -10.543469,0 -20.455466,-4.10598 -27.910719,-11.56159 -7.455958,-7.4549 -11.561938,-17.3676 -11.561938,-27.91142 0,-10.54276 4.10598,-20.45547 11.561938,-27.91107 7.455253,-7.45455 17.36725,-11.56053 27.910719,-11.56053 10.544175,0 20.456172,4.10598 27.910719,11.56053 7.455252,7.4556 11.561938,17.36831 11.561938,27.91107 0,10.54382 -4.106686,20.45652 -11.561938,27.91142 -7.454547,7.45561 -17.366544,11.56159 -27.910719,11.56159" />
    <path
       inkscape:connector-curvature="0"
       id="path2642"
       style="fill:#e7096e;fill-opacity:1;fill-rule:nonzero;stroke:none;stroke-width:0.35277778;filter:url(#filter6788)"
       d="m 23.577873,333.65846 c -0.02893,0 -0.05856,-0.003 -0.0889,-0.007 -0.346428,-0.0483 -0.589139,-0.36936 -0.540808,-0.71649 1.144411,-8.18022 5.212291,-15.70108 11.455399,-21.17514 6.302728,-5.5252 14.393686,-8.56826 22.784505,-8.56826 6.499578,0 12.833703,1.81363 18.316928,5.2451 0.297039,0.18662 0.386644,0.57749 0.201436,0.87383 -0.185561,0.29774 -0.577497,0.3884 -0.874536,0.20179 -5.282142,-3.30518 -11.382022,-5.05143 -17.643828,-5.05143 -16.519171,0 -30.698368,12.31618 -32.982604,28.65085 -0.0448,0.31679 -0.316089,0.54645 -0.627592,0.54645" />
    <path
       inkscape:connector-curvature="0"
       id="path2650"
       style="fill:#410045;fill-opacity:1;fill-rule:nonzero;stroke:none;stroke-width:0.35277778"
       d="m 127.8504,351.6227 c -0.27976,0 -0.53658,-0.18662 -0.61313,-0.47061 -0.0896,-0.33831 0.11077,-0.68615 0.44908,-0.77681 l 22.69914,-6.0826 c 0.33902,-0.0896 0.68544,0.11042 0.77646,0.44909 0.091,0.33867 -0.11007,0.68651 -0.44838,0.77717 l -22.69843,6.08189 c -0.0547,0.0145 -0.11042,0.0219 -0.16474,0.0219" />
    <path
       inkscape:connector-curvature="0"
       id="path2654"
       style="fill:#f9a719;fill-opacity:1;fill-rule:nonzero;stroke:none;stroke-width:0.35277778"
       d="m 128.20212,360.59358 c -0.28046,0 -0.53693,-0.18662 -0.61242,-0.47061 -0.0907,-0.33866 0.11006,-0.68615 0.44803,-0.77681 l 22.69842,-6.08189 c 0.33832,-0.0907 0.68615,0.10971 0.77717,0.44838 0.091,0.33867 -0.10972,0.68615 -0.44838,0.77682 l -22.69843,6.08224 c -0.0547,0.0145 -0.11006,0.0219 -0.16439,0.0219" />
    <path
       inkscape:connector-curvature="0"
       id="path2658"
       style="fill:#410045;fill-opacity:1;fill-rule:nonzero;stroke:none;stroke-width:0.35277778"
       d="m 163.43197,311.4312 c 0,10.63096 -8.61624,19.24685 -19.2465,19.24685 -10.62954,0 -19.24614,-8.61589 -19.24614,-19.24685 0,-10.62955 8.6166,-19.2465 19.24614,-19.2465 10.63026,0 19.2465,8.61695 19.2465,19.2465" />
    <path
       inkscape:connector-curvature="0"
       id="path2662"
       style="fill:#f9a719;fill-opacity:1;fill-rule:nonzero;stroke:none;stroke-width:0.35277778"
       d="m 144.21141,286.10793 c -13.78726,0 -25.00348,11.21622 -25.00348,25.00348 0,13.78691 11.21622,25.00347 25.00348,25.00347 13.78691,0 25.00418,-11.21656 25.00418,-25.00347 0,-13.78726 -11.21727,-25.00348 -25.00418,-25.00348 m 0,51.2766 c -14.48682,0 -26.27277,-11.78701 -26.27277,-26.27312 0,-14.48647 11.78595,-26.27313 26.27277,-26.27313 14.48646,0 26.27277,11.78666 26.27277,26.27313 0,14.48611 -11.78631,26.27312 -26.27277,26.27312" />
    <path
       inkscape:connector-curvature="0"
       id="path2666"
       style="fill:#52bfa9;fill-opacity:1;fill-rule:nonzero;stroke:none;stroke-width:0.35277778"
       d="m 144.21141,300.70513 c -5.73829,0 -10.40589,4.66831 -10.40589,10.40624 0,5.73758 4.6676,10.40624 10.40589,10.40624 5.73793,0 10.40624,-4.66866 10.40624,-10.40624 0,-5.73793 -4.66831,-10.40624 -10.40624,-10.40624 m 0,22.08107 c -6.43784,0 -11.67518,-5.23699 -11.67518,-11.67483 0,-6.43784 5.23734,-11.67518 11.67518,-11.67518 6.43784,0 11.67518,5.23734 11.67518,11.67518 0,6.43784 -5.23734,11.67483 -11.67518,11.67483" />
    <path
       inkscape:connector-curvature="0"
       id="path2670"
       style="fill:#e7096e;fill-opacity:1;fill-rule:nonzero;stroke:none;stroke-width:0.35277778"
       d="m 122.73504,311.74563 c -0.35066,0 -0.635,-0.28399 -0.635,-0.63429 0,-12.19271 9.91905,-22.11141 22.1114,-22.11141 0.35067,0 0.6343,0.28469 0.6343,0.63429 0,0.35031 -0.28363,0.6343 -0.6343,0.6343 -11.49244,0 -20.84211,9.35002 -20.84211,20.84282 0,0.3503 -0.28433,0.63429 -0.63429,0.63429" />
    <path
       inkscape:connector-curvature="0"
       id="path2554"
       style="fill:#e7096e;fill-opacity:1;fill-rule:nonzero;stroke:none;stroke-width:0.35277778;filter:url(#filter6784)"
       d="m -38.878923,361.61883 c -1.329972,7.1e-4 -2.325511,-0.97755 -3.221214,-1.85632 -1.081616,-1.06221 -1.807986,-1.68874 -2.762955,-1.43298 -0.337609,0.0907 -0.685448,-0.11007 -0.776464,-0.44873 -0.09102,-0.33867 0.110066,-0.68651 0.449086,-0.77717 1.722614,-0.46108 2.921705,0.71578 3.979333,1.75366 1.082322,1.06186 1.807986,1.68874 2.76225,1.43227 0.95497,-0.25505 1.270353,-1.16134 1.6764,-2.62184 0.396875,-1.42805 0.845961,-3.04588 2.569986,-3.50838 1.724025,-0.46108 2.922058,0.71579 3.979686,1.75366 1.08197,1.06186 1.807986,1.68769 2.76225,1.43263 0.95497,-0.25576 1.27,-1.16169 1.675694,-2.62255 0.396875,-1.42769 0.84702,-3.04588 2.569987,-3.50802 1.724025,-0.46143 2.923116,0.71473 3.980038,1.75295 1.082323,1.06222 1.808692,1.68769 2.762956,1.43405 0.954264,-0.25647 1.268941,-1.16241 1.675694,-2.62326 0.39617,-1.42734 0.845961,-3.04553 2.569986,-3.50696 1.722614,-0.4632 2.9213529,0.71437 3.9789809,1.7526 1.082322,1.06256 1.807986,1.68874 2.761544,1.43333 0.95497,-0.25611 1.270706,-1.1617 1.675695,-2.6222 0.39758,-1.42769 0.847019,-3.04694 2.569986,-3.50837 1.72402495,-0.46108 2.923116,0.71508 3.980038,1.75295 1.0816164,1.06257 1.8072801,1.6884 2.7622485,1.43334 0.9549694,-0.25647 1.2703524,-1.16135 1.6763991,-2.6222 0.3968747,-1.42804 0.8459611,-3.04694 2.5699861,-3.50802 1.7240244,-0.46143 2.9227634,0.71473 3.9796854,1.75225 1.081617,1.06292 1.808692,1.6891 2.76225,1.43333 0.954264,-0.25611 1.27,-1.16134 1.6764,-2.62219 0.39617,-1.4277 0.846314,-3.04589 2.569987,-3.50803 1.723319,-0.46214 2.922058,0.71473 3.979687,1.75366 1.08197,1.06151 1.807634,1.68769 2.762604,1.43228 0.954264,-0.25506 1.269647,-1.16135 1.675695,-2.62185 0.396874,-1.42804 0.846666,-3.04588 2.569986,-3.50837 1.723672,-0.46214 2.922058,0.71508 3.980391,1.75366 1.081617,1.06186 1.807281,1.68875 2.76225,1.43228 0.954264,-0.25612 1.27,-1.16135 1.675694,-2.6222 0.396875,-1.42769 0.846667,-3.04694 2.570692,-3.50802 1.723319,-0.46214 2.922058,0.71472 3.979686,1.7526 1.082675,1.06256 1.807986,1.68839 2.762956,1.43333 0.954263,-0.25647 1.27,-1.16134 1.675694,-2.62219 0.396875,-1.4277 0.847019,-3.04695 2.570339,-3.50908 1.722966,-0.46144 2.922058,0.71578 3.979686,1.75365 1.082322,1.06257 1.80728,1.68875 2.76225,1.43334 0.954969,-0.25612 1.270353,-1.16134 1.6764,-2.6222 0.396169,-1.42769 0.845961,-3.04659 2.569986,-3.50837 1.723319,-0.46179 2.922058,0.71508 3.980391,1.75295 1.08197,1.06257 1.807986,1.68875 2.76225,1.43298 0.95497,-0.25611 1.270706,-1.16134 1.6764,-2.6229 0.396875,-1.42769 0.84702,-3.04588 2.570692,-3.50732 1.723319,-0.46213 2.922764,0.71403 3.980039,1.7519 1.082322,1.06257 1.808691,1.68945 2.762955,1.43333 0.954264,-0.25541 1.270353,-1.16134 1.6764,-2.62219 0.396875,-1.42769 0.846667,-3.04694 2.569986,-3.50802 1.723672,-0.4625 2.922764,0.71472 3.981097,1.7526 1.082323,1.0615 1.807986,1.68768 2.762956,1.43333 0.339725,-0.0907 0.686153,0.11007 0.777875,0.44838 0.08961,0.33902 -0.11042,0.68651 -0.449086,0.77717 -1.722614,0.46214 -2.923822,-0.71508 -3.980745,-1.75295 -1.082322,-1.06257 -1.807986,-1.6884 -2.763661,-1.43334 -0.954264,0.25647 -1.269647,1.1617 -1.6764,2.62326 -0.396875,1.42698 -0.846666,3.04623 -2.570691,3.50802 -1.722614,0.46143 -2.922059,-0.71543 -3.979686,-1.75331 -1.082322,-1.06186 -1.808692,-1.68839 -2.762956,-1.43263 -0.954969,0.25542 -1.27,1.1617 -1.675694,2.62255 -0.397581,1.4277 -0.846667,3.04553 -2.570692,3.50803 -1.724025,0.46214 -2.922058,-0.71473 -3.980391,-1.75296 -1.08197,-1.06221 -1.807281,-1.68874 -2.76225,-1.43298 -0.95497,0.25506 -1.27,1.16134 -1.6764,2.62184 -0.39617,1.42805 -0.846314,3.04695 -2.569986,3.50838 -1.72332,0.46214 -2.922411,-0.71508 -3.980039,-1.75295 -1.081617,-1.06257 -1.807281,-1.68946 -2.76225,-1.43334 -0.954969,0.25647 -1.269647,1.1617 -1.675694,2.62255 -0.396875,1.42769 -0.846667,3.04694 -2.569987,3.50767 -1.72473,0.46143 -2.922763,-0.71438 -3.980391,-1.75225 -1.08197,-1.06186 -1.807986,-1.68839 -2.762956,-1.43333 -0.954263,0.25611 -1.27,1.16134 -1.6764,2.62219 -0.396169,1.42875 -0.846313,3.04695 -2.569986,3.50803 -1.724025,0.46213 -2.922411,-0.71473 -3.980038,-1.75296 -1.082323,-1.06221 -1.807986,-1.68839 -2.76225,-1.43192 -0.95497,0.25506 -1.269648,1.16028 -1.6764,2.62078 -0.39617,1.42805 -0.845961,3.04695 -2.569281,3.50944 -1.724026,0.46002 -2.922765,-0.71614 -3.979688,-1.75366 -1.082323,-1.06257 -1.808692,-1.68875 -2.762956,-1.43298 -0.954264,0.25576 -1.27,1.16134 -1.675695,2.62184 -0.396875,1.42769 -0.846313,3.04694 -2.569986,3.50873 -1.724025,0.46073 -2.922764,-0.71544 -3.979686,-1.75331 -1.081969,-1.06256 -1.807633,-1.68945 -2.762602,-1.43333 -0.9542642,0.25541 -1.2703531,1.16134 -1.6764003,2.62219 -0.3961694,1.42805 -0.8459615,3.04624 -2.5699856,3.50908 -1.7229648,0.46038 -2.9220562,-0.71578 -3.9796842,-1.75365 -1.08161605,-1.06257 -1.80798605,-1.68946 -2.76225005,-1.43334 -0.95426295,0.25576 -1.26999895,1.1617 -1.67569395,2.62255 -0.396875,1.42734 -0.845961,3.04553 -2.569986,3.50802 -1.723319,0.46144 -2.921353,-0.71473 -3.97898,-1.75401 -1.0819699,-1.06151 -1.8079869,-1.68839 -2.7626029,-1.43192 -0.954264,0.25505 -1.269647,1.16134 -1.675695,2.62184 -0.396875,1.42699 -0.845961,3.04624 -2.56928,3.50838 -1.722967,0.46037 -2.922058,-0.71579 -3.980392,-1.75366 -1.081616,-1.06186 -1.80728,-1.68769 -2.76225,-1.43334 -0.954263,0.25612 -1.27,1.1624 -1.675694,2.62326 -0.396875,1.42663 -0.846667,3.04588 -2.569986,3.50802 -1.723319,0.46108 -2.922058,-0.71579 -3.979686,-1.75331 -1.082675,-1.06292 -1.807986,-1.6898 -2.762956,-1.43369 -0.953911,0.25647 -1.269294,1.16241 -1.674988,2.62326 -0.396875,1.42699 -0.847725,3.04553 -2.571045,3.50696 -0.264583,0.0716 -0.517172,0.10372 -0.758472,0.10372" />
    <path
       inkscape:connector-curvature="0"
       id="path2630"
       style="fill:#e7096e;fill-opacity:1;fill-rule:nonzero;stroke:none;stroke-width:0.35277778"
       d="m 147.53681,311.27295 c 0,1.79282 -1.45309,3.24626 -3.24662,3.24626 -1.79352,0 -3.24661,-1.45344 -3.24661,-3.24626 0,-1.79317 1.45309,-3.24626 3.24661,-3.24626 1.79353,0 3.24662,1.45309 3.24662,3.24626" />
    <g
       id="g6208"
       transform="rotate(1.1636434,-1344.6199,4262.4047)"
       style="filter:url(#filter6780)">
      <path
         d="m -32.085057,321.69535 c 0,2.24491 -1.819829,4.06474 -4.064734,4.06474 -2.245105,0 -4.065336,-1.81983 -4.065336,-4.06474 0,-2.2451 1.820231,-4.06493 4.065336,-4.06493 2.244905,0 4.064734,1.81983 4.064734,4.06493"
         style="fill:#540559;fill-opacity:1;fill-rule:nonzero;stroke:none;stroke-width:0.20088632"
         id="path2610"
         inkscape:connector-curvature="0" />
      <path
         inkscape:connector-curvature="0"
         id="path6177"
         style="fill:#e7096e;fill-opacity:1;fill-rule:nonzero;stroke:none;stroke-width:0.20088632"
         d="m -21.995631,319.02265 c 0,2.24491 -1.819829,4.06474 -4.064734,4.06474 -2.245105,0 -4.065336,-1.81983 -4.065336,-4.06474 0,-2.2451 1.820231,-4.06493 4.065336,-4.06493 2.244905,0 4.064734,1.81983 4.064734,4.06493" />
      <path
         d="m -11.906207,316.61722 c 0,2.24491 -1.819829,4.06474 -4.064734,4.06474 -2.245105,0 -4.065336,-1.81983 -4.065336,-4.06474 0,-2.2451 1.820231,-4.06493 4.065336,-4.06493 2.244905,0 4.064734,1.81983 4.064734,4.06493"
         style="fill:#52bfa9;fill-opacity:1;fill-rule:nonzero;stroke:none;stroke-width:0.20088632"
         id="path6179"
         inkscape:connector-curvature="0" />
      <path
         inkscape:connector-curvature="0"
         id="path6181"
         style="fill:#f9a719;fill-opacity:1;fill-rule:nonzero;stroke:none;stroke-width:0.20088632"
         d="m -1.8167792,313.67726 c 0,2.24491 -1.819829,4.06474 -4.064734,4.06474 -2.245105,0 -4.065336,-1.81983 -4.065336,-4.06474 0,-2.2451 1.820231,-4.06493 4.065336,-4.06493 2.244905,0 4.064734,1.81983 4.064734,4.06493" />
      <path
         d="m 8.2726485,310.7373 c 0,2.24491 -1.819829,4.06474 -4.064734,4.06474 -2.245105,0 -4.06533596,-1.81983 -4.06533596,-4.06474 0,-2.2451 1.82023096,-4.06493 4.06533596,-4.06493 2.244905,0 4.064734,1.81983 4.064734,4.06493"
         style="fill:#36003a;fill-opacity:1;fill-rule:nonzero;stroke:none;stroke-width:0.20088632"
         id="path6183"
         inkscape:connector-curvature="0" />
    </g>
  </g>
</svg>
