<?xml version="1.0" encoding="UTF-8" standalone="no"?>
<svg
   xmlns:dc="http://purl.org/dc/elements/1.1/"
   xmlns:cc="http://creativecommons.org/ns#"
   xmlns:rdf="http://www.w3.org/1999/02/22-rdf-syntax-ns#"
   xmlns:svg="http://www.w3.org/2000/svg"
   xmlns="http://www.w3.org/2000/svg"
   xmlns:sodipodi="http://sodipodi.sourceforge.net/DTD/sodipodi-0.dtd"
   xmlns:inkscape="http://www.inkscape.org/namespaces/inkscape"
   width="40"
   height="40"
   viewBox="0 0 40 40"
   version="1.1"
   id="svg8"
   sodipodi:docname="logo-icon-2.svg"
   style="fill:none"
   inkscape:version="0.92.3 (2405546, 2018-03-11)">
  <metadata
     id="metadata14">
    <rdf:RDF>
      <cc:Work
         rdf:about="">
        <dc:format>image/svg+xml</dc:format>
        <dc:type
           rdf:resource="http://purl.org/dc/dcmitype/StillImage" />
        <dc:title></dc:title>
      </cc:Work>
    </rdf:RDF>
  </metadata>
  <defs
     id="defs12" />
  <sodipodi:namedview
     pagecolor="#ffffff"
     bordercolor="#666666"
     borderopacity="1"
     objecttolerance="10"
     gridtolerance="10"
     guidetolerance="10"
     inkscape:pageopacity="0"
     inkscape:pageshadow="2"
     inkscape:window-width="1874"
     inkscape:window-height="1136"
     id="namedview10"
     showgrid="false"
     fit-margin-top="0"
     fit-margin-left="0"
     fit-margin-right="0"
     fit-margin-bottom="0"
     inkscape:zoom="8.34386"
     inkscape:cx="7.2881267"
     inkscape:cy="21.690293"
     inkscape:window-x="46"
     inkscape:window-y="27"
     inkscape:window-maximized="1"
     inkscape:current-layer="svg8" />
  <rect
     width="40"
     height="40"
     rx="5"
     id="rect2"
     x="0"
     y="0"
     style="fill:#2b2b96;stroke-width:0.125;fill-opacity:1" />
  <path
     d="m 14.376,6.636 v 9.036 c 0,2.64 -0.912,4.092 -2.736,4.356 1.824,0.216 2.736,1.632 2.736,4.248 v 9.144 c 0,0.408 0.084,0.696 0.252,0.864 0.168,0.168 0.468,0.252 0.9,0.252 h 1.62 v 2.556 h -2.952 c -1.128,0 -1.932,-0.276 -2.412,-0.828 C 11.328,35.712 11.1,34.908 11.1,33.852 v -8.676 c 0,-1.344 -0.24,-2.328 -0.72,-2.952 C 9.9,21.6 9.144,21.288 8.112,21.288 H 7.5 v -2.52 h 0.612 c 1.032,0 1.788,-0.312 2.268,-0.936 0.48,-0.648 0.72,-1.656 0.72,-3.024 V 6.24 C 11.1,4.08 12.132,3 14.196,3 h 2.952 v 2.556 h -1.62 c -0.432,0 -0.732,0.084 -0.9,0.252 -0.168,0.144 -0.252,0.42 -0.252,0.828 z"
     id="path4"
     inkscape:connector-curvature="0"
     style="fill:#ffffff;stroke-width:0.125" />
  <path
     d="M 25.670375,15.672 V 6.636 c 0,-0.408 -0.084,-0.684 -0.251875,-0.828 -0.168,-0.168 -0.468,-0.252 -0.9,-0.252 h -1.62 V 3 h 2.951875 c 1.128,0 1.92,0.288 2.376,0.864 0.456,0.552 0.684125,1.344 0.684125,2.376 v 8.568 c 0,1.368 0.24,2.376 0.72,3.024 0.479875,0.624 1.248,0.936 2.304,0.936 h 0.576 v 2.52 h -0.576 c -1.056,0 -1.824125,0.312 -2.304,0.936 -0.48,0.624 -0.72,1.608 -0.72,2.952 v 8.676 c 0,1.056 -0.228125,1.86 -0.684125,2.412 -0.456,0.552 -1.248,0.828 -2.376,0.828 H 22.8985 v -2.556 h 1.62 c 0.432,0 0.732,-0.084 0.9,-0.252 0.167875,-0.168 0.251875,-0.456 0.251875,-0.864 v -9.144 c 0,-2.616 0.912125,-4.032 2.736125,-4.248 -1.824,-0.264 -2.736125,-1.716 -2.736125,-4.356 z"
     id="path6"
     inkscape:connector-curvature="0"
     style="fill:#ffffff;stroke-width:0.125" />
</svg>
