<svg width="320" height="320" viewBox="0 0 320 320" fill="none" xmlns="http://www.w3.org/2000/svg">
<rect width="320" height="320" rx="30" fill="#3F51B5"/>
<path d="M131.875 298.047C115.281 293.359 102.766 285.625 94.3281 274.844C85.9844 264.156 81.8125 250 81.8125 232.375V204.391C81.8125 181.609 71.875 170.219 52 170.219V149.828C71.875 149.828 81.8125 138.484 81.8125 115.797V86.5469C82 69.3906 86.1719 55.5625 94.3281 45.0625C102.578 34.4688 115.094 26.7812 131.875 22L137.219 38.1719C117.625 44.4531 107.828 60.8125 107.828 87.25V115.656C107.828 136.938 100 151.75 84.3438 160.094C100 168.531 107.828 183.484 107.828 204.953V233.922C108.109 259.703 117.906 275.688 137.219 281.875L131.875 298.047Z" fill="white"/>
<path d="M188.125 298.047C204.719 293.359 217.234 285.625 225.672 274.844C234.016 264.156 238.188 250 238.188 232.375V204.391C238.188 181.609 248.125 170.219 268 170.219V149.828C248.125 149.828 238.188 138.484 238.188 115.797V86.5469C238 69.3906 233.828 55.5625 225.672 45.0625C217.422 34.4688 204.906 26.7812 188.125 22L182.781 38.1719C202.375 44.4531 212.172 60.8125 212.172 87.25V115.656C212.172 136.938 220 151.75 235.656 160.094C220 168.531 212.172 183.484 212.172 204.953V233.922C211.891 259.703 202.094 275.688 182.781 281.875L188.125 298.047Z" fill="white"/>
</svg>
