<svg width="300" height="300" viewBox="0 0 300 300" fill="none" xmlns="http://www.w3.org/2000/svg">
<circle cx="150" cy="150" r="150" fill="#5761B8"/>
<path d="M149.583 40C118.301 40 93 65.3008 93 96.5833C93 130.291 128.728 176.77 143.44 194.473C146.673 198.353 152.574 198.353 155.808 194.473C170.438 176.77 206.167 130.291 206.167 96.5833C206.167 65.3008 180.866 40 149.583 40Z" fill="white"/>
<path d="M175 235C175 248.807 163.807 260 150 260C136.193 260 125 248.807 125 235C125 221.193 136.193 210 150 210C163.807 210 175 221.193 175 235Z" fill="white"/>
</svg>
