<?xml version="1.0" standalone="no"?>
<!DOCTYPE svg PUBLIC "-//W3C//DTD SVG 20010904//EN"
 "http://www.w3.org/TR/2001/REC-SVG-20010904/DTD/svg10.dtd">
<svg version="1.0" xmlns="http://www.w3.org/2000/svg"
 width="700.000000pt" height="700.000000pt" viewBox="0 0 700.000000 700.000000"
 preserveAspectRatio="xMidYMid meet">
<metadata>
Created by potrace 1.11, written by Peter Selinger 2001-2013
</metadata>
<g transform="translate(0.000000,700.000000) scale(0.100000,-0.100000)"
fill="#000000" stroke="none">
<path d="M3285 6994 c-203 -20 -276 -28 -375 -45 -610 -105 -1195 -376 -1665
-772 -95 -81 -310 -294 -394 -392 -468 -542 -742 -1176 -833 -1925 -17 -137
-17 -583 0 -720 69 -569 227 -1028 514 -1491 145 -236 311 -440 525 -649 204
-200 371 -332 592 -468 463 -287 922 -445 1491 -514 137 -17 583 -17 720 0
569 69 1028 227 1491 514 360 222 692 528 958 882 323 430 549 960 640 1501
38 223 46 327 46 585 0 258 -8 362 -46 585 -105 627 -382 1216 -800 1700 -84
98 -299 311 -394 392 -518 437 -1148 710 -1845 798 -117 15 -536 28 -625 19z
m438 -950 c182 -30 395 -122 550 -237 409 -303 604 -800 512 -1302 -93 -512
-472 -1200 -1076 -1951 -107 -133 -140 -156 -220 -156 -78 1 -115 29 -232 176
-487 616 -792 1115 -963 1579 -84 228 -118 400 -118 602 0 160 13 245 61 399
100 322 345 609 649 763 271 137 533 177 837 127z m-33 -3978 c168 -58 300
-190 361 -362 30 -82 37 -237 15 -324 -49 -196 -203 -360 -396 -421 -49 -16
-91 -21 -170 -21 -175 0 -307 58 -424 184 -197 212 -211 519 -33 753 145 193
414 272 647 191z"/>
</g>
</svg>
