<?xml version="1.0" standalone="no"?>
<!DOCTYPE svg PUBLIC "-//W3C//DTD SVG 20010904//EN"
 "http://www.w3.org/TR/2001/REC-SVG-20010904/DTD/svg10.dtd">
<svg version="1.0" xmlns="http://www.w3.org/2000/svg"
 width="700.000000pt" height="700.000000pt" viewBox="0 0 700.000000 700.000000"
 preserveAspectRatio="xMidYMid meet">
<metadata>
Created by potrace 1.11, written by Peter Selinger 2001-2013
</metadata>
<g transform="translate(0.000000,700.000000) scale(0.100000,-0.100000)"
fill="#000000" stroke="none">
<path d="M713 6989 c-344 -57 -646 -363 -702 -710 -15 -89 -15 -5469 0 -5558
57 -352 358 -653 710 -710 89 -15 5469 -15 5558 0 352 57 653 358 710 710 15
89 15 5469 0 5558 -57 352 -358 653 -710 710 -80 13 -5489 13 -5566 0z m2237
-906 c29 -82 55 -154 58 -160 2 -7 -1 -13 -7 -13 -31 0 -180 -67 -244 -110
-190 -127 -302 -303 -358 -558 -19 -88 -22 -143 -29 -572 -6 -365 -12 -491
-23 -545 -61 -278 -206 -471 -458 -608 l-33 -18 66 -39 c156 -90 285 -226 348
-365 86 -193 91 -228 100 -770 7 -427 10 -479 29 -569 56 -256 176 -440 367
-562 60 -40 207 -104 235 -104 6 0 9 -6 7 -12 -3 -7 -29 -79 -58 -160 -61
-171 -34 -159 -217 -97 -499 168 -798 475 -887 910 -27 132 -36 292 -36 650 0
375 -9 467 -54 579 -83 204 -258 319 -512 337 l-84 6 0 197 0 197 84 6 c234
16 409 120 491 291 65 135 67 153 75 661 8 481 14 547 60 715 30 106 107 262
177 355 149 200 391 358 708 461 72 24 133 43 136 43 3 1 30 -65 59 -146z
m1330 100 c148 -49 368 -160 471 -237 196 -148 320 -323 392 -552 54 -171 59
-225 67 -724 6 -431 8 -471 28 -543 72 -262 250 -403 540 -424 l82 -6 0 -197
0 -197 -82 -6 c-289 -21 -469 -162 -540 -424 -19 -72 -22 -113 -28 -543 -6
-372 -11 -483 -24 -554 -78 -407 -298 -686 -691 -872 -60 -29 -157 -68 -215
-87 -172 -56 -147 -69 -208 101 -29 81 -52 152 -51 157 2 6 33 22 70 36 289
113 457 316 531 644 18 80 21 141 28 555 5 289 12 488 19 525 58 292 198 493
439 631 60 34 60 32 -28 82 -175 98 -320 282 -378 477 -41 140 -44 182 -52
660 -7 419 -10 480 -28 560 -75 330 -241 531 -533 645 -39 15 -70 31 -70 36 0
5 24 75 53 156 61 170 36 157 208 101z"/>
</g>
</svg>
